<svg width="398" height="398" viewBox="0 0 398 398" fill="none" xmlns="http://www.w3.org/2000/svg">
<rect width="398" height="398" rx="199" fill="#0D61FF"/>
<path d="M281 254.162C278.635 211.548 225.976 192.185 220.941 190.197C220.735 190.197 220.735 189.888 220.941 189.678L275.238 134.196V128.231C275.238 127.293 274.414 126.453 273.491 126.453H173.436V83L136.511 90.8534V96.5087H138.573C138.573 96.5087 147.623 96.5087 147.623 105.721V126.343H119.031C118.521 126.343 118 126.862 118 127.392V140.481H147.72V211.559C147.72 233.86 161.804 249.357 186.49 247.258C191.525 246.739 196.462 244.95 200.683 242.023C202.538 240.763 203.667 238.676 203.667 236.478V229.464C195.648 234.909 188.855 234.589 188.855 234.589C173.219 234.589 173.534 214.387 173.534 214.387V140.47H245.518L193.684 193.654C193.684 200.668 193.478 206.114 193.478 206.213C193.478 206.312 193.478 206.522 193.684 206.522C241.199 214.685 254.047 245.988 254.047 255.1C254.047 255.1 259.19 299.382 215.689 302.419C215.689 302.419 187.206 303.679 182.161 292.059C181.954 291.639 182.16 291.219 182.464 291.009C187.293 288.911 190.483 284.095 190.385 278.76C190.385 270.178 185.242 263.164 174.446 263.164C163.649 263.164 158.506 270.178 158.506 278.76C158.506 278.76 154.393 316.028 215.483 314.978C285.21 313.719 280.891 254.151 280.891 254.151H281V254.162Z" fill="white"/>
</svg>
